<svg width="20" height="18" viewBox="0 0 20 18" fill="none" xmlns="http://www.w3.org/2000/svg">
<path d="M12.1694 16.4443V10.9575C12.1694 10.7638 12.1113 10.6117 11.9951 10.501C11.8844 10.3848 11.7323 10.3267 11.5386 10.3267H8.52539C8.33724 10.3267 8.18229 10.3848 8.06055 10.501C7.94434 10.6117 7.88623 10.7638 7.88623 10.9575V16.4443H12.1694ZM2.70654 15.9546V9.37207L9.52979 3.65283C9.86182 3.37061 10.1938 3.37061 10.5259 3.65283L17.3491 9.37207V15.9546C17.3491 16.5301 17.1831 16.9784 16.8511 17.2993C16.5246 17.6203 16.0708 17.7808 15.4897 17.7808H4.57422C3.98763 17.7808 3.52832 17.6203 3.19629 17.2993C2.86979 16.9784 2.70654 16.5301 2.70654 15.9546ZM0.116699 8.54199C0.116699 8.32617 0.205241 8.14632 0.382324 8.00244L9.03174 0.739258C9.34163 0.479167 9.67367 0.349121 10.0278 0.349121C10.3875 0.349121 10.7223 0.479167 11.0322 0.739258L19.6733 8.00244C19.8449 8.14632 19.9307 8.33447 19.9307 8.56689C19.9307 8.76611 19.8615 8.92383 19.7231 9.04004C19.5848 9.15072 19.4188 9.20605 19.2251 9.20605C19.1089 9.20605 19.001 9.17839 18.9014 9.12305C18.8073 9.06771 18.7188 9.00684 18.6357 8.94043L10.3267 1.96777C10.2326 1.88477 10.133 1.84326 10.0278 1.84326C9.92822 1.84326 9.83138 1.88477 9.7373 1.96777L1.42822 8.94043C1.33968 9.00684 1.24561 9.06771 1.146 9.12305C1.05192 9.17839 0.946777 9.20605 0.830566 9.20605C0.609212 9.20605 0.434896 9.13965 0.307617 9.00684C0.180339 8.86849 0.116699 8.71354 0.116699 8.54199ZM15.2656 4.79834V2.72314C15.2656 2.54053 15.321 2.39665 15.4316 2.2915C15.5423 2.18083 15.6862 2.12549 15.8633 2.12549H16.7515C16.9341 2.12549 17.078 2.18083 17.1831 2.2915C17.2938 2.39665 17.3491 2.54053 17.3491 2.72314V6.56641L15.2656 4.79834Z" fill="white"/>
</svg>
