<svg width="19" height="18" viewBox="0 0 19 18" fill="none" xmlns="http://www.w3.org/2000/svg">
<path d="M7.79688 8.34619C7.63607 8.34619 7.52165 8.31836 7.45361 8.2627C7.39176 8.20085 7.36084 8.08952 7.36084 7.92871V7.38135C7.36084 7.22054 7.39176 7.10921 7.45361 7.04736C7.52165 6.98551 7.63607 6.95459 7.79688 6.95459H8.34424C8.50505 6.95459 8.61637 6.98551 8.67822 7.04736C8.74626 7.10921 8.78027 7.22054 8.78027 7.38135V7.92871C8.78027 8.08952 8.74626 8.20085 8.67822 8.2627C8.61637 8.31836 8.50505 8.34619 8.34424 8.34619H7.79688ZM10.8862 8.34619C10.7192 8.34619 10.6048 8.31836 10.543 8.2627C10.4811 8.20085 10.4502 8.08952 10.4502 7.92871V7.38135C10.4502 7.22054 10.4811 7.10921 10.543 7.04736C10.6048 6.98551 10.7192 6.95459 10.8862 6.95459H11.4243C11.5913 6.95459 11.7057 6.98551 11.7676 7.04736C11.8294 7.10921 11.8604 7.22054 11.8604 7.38135V7.92871C11.8604 8.08952 11.8294 8.20085 11.7676 8.2627C11.7057 8.31836 11.5913 8.34619 11.4243 8.34619H10.8862ZM13.9663 8.34619C13.7993 8.34619 13.6849 8.31836 13.623 8.2627C13.5612 8.20085 13.5303 8.08952 13.5303 7.92871V7.38135C13.5303 7.22054 13.5612 7.10921 13.623 7.04736C13.6849 6.98551 13.7993 6.95459 13.9663 6.95459H14.5137C14.6745 6.95459 14.7858 6.98551 14.8477 7.04736C14.9095 7.10921 14.9404 7.22054 14.9404 7.38135V7.92871C14.9404 8.08952 14.9095 8.20085 14.8477 8.2627C14.7858 8.31836 14.6745 8.34619 14.5137 8.34619H13.9663ZM4.7168 11.3799C4.5498 11.3799 4.43538 11.3521 4.37354 11.2964C4.31169 11.2345 4.28076 11.1232 4.28076 10.9624V10.415C4.28076 10.2542 4.31169 10.146 4.37354 10.0903C4.43538 10.0285 4.5498 9.99756 4.7168 9.99756H5.26416C5.42497 9.99756 5.5363 10.0285 5.59814 10.0903C5.65999 10.146 5.69092 10.2542 5.69092 10.415V10.9624C5.69092 11.1232 5.65999 11.2345 5.59814 11.2964C5.5363 11.3521 5.42497 11.3799 5.26416 11.3799H4.7168ZM7.79688 11.3799C7.63607 11.3799 7.52165 11.3521 7.45361 11.2964C7.39176 11.2345 7.36084 11.1232 7.36084 10.9624V10.415C7.36084 10.2542 7.39176 10.146 7.45361 10.0903C7.52165 10.0285 7.63607 9.99756 7.79688 9.99756H8.34424C8.50505 9.99756 8.61637 10.0285 8.67822 10.0903C8.74626 10.146 8.78027 10.2542 8.78027 10.415V10.9624C8.78027 11.1232 8.74626 11.2345 8.67822 11.2964C8.61637 11.3521 8.50505 11.3799 8.34424 11.3799H7.79688ZM10.8862 11.3799C10.7192 11.3799 10.6048 11.3521 10.543 11.2964C10.4811 11.2345 10.4502 11.1232 10.4502 10.9624V10.415C10.4502 10.2542 10.4811 10.146 10.543 10.0903C10.6048 10.0285 10.7192 9.99756 10.8862 9.99756H11.4243C11.5913 9.99756 11.7057 10.0285 11.7676 10.0903C11.8294 10.146 11.8604 10.2542 11.8604 10.415V10.9624C11.8604 11.1232 11.8294 11.2345 11.7676 11.2964C11.7057 11.3521 11.5913 11.3799 11.4243 11.3799H10.8862ZM13.9663 11.3799C13.7993 11.3799 13.6849 11.3521 13.623 11.2964C13.5612 11.2345 13.5303 11.1232 13.5303 10.9624V10.415C13.5303 10.2542 13.5612 10.146 13.623 10.0903C13.6849 10.0285 13.7993 9.99756 13.9663 9.99756H14.5137C14.6745 9.99756 14.7858 10.0285 14.8477 10.0903C14.9095 10.146 14.9404 10.2542 14.9404 10.415V10.9624C14.9404 11.1232 14.9095 11.2345 14.8477 11.2964C14.7858 11.3521 14.6745 11.3799 14.5137 11.3799H13.9663ZM4.7168 14.4229C4.5498 14.4229 4.43538 14.3919 4.37354 14.3301C4.31169 14.2682 4.28076 14.1569 4.28076 13.9961V13.4487C4.28076 13.2879 4.31169 13.1797 4.37354 13.124C4.43538 13.0622 4.5498 13.0312 4.7168 13.0312H5.26416C5.42497 13.0312 5.5363 13.0622 5.59814 13.124C5.65999 13.1797 5.69092 13.2879 5.69092 13.4487V13.9961C5.69092 14.1569 5.65999 14.2682 5.59814 14.3301C5.5363 14.3919 5.42497 14.4229 5.26416 14.4229H4.7168ZM7.79688 14.4229C7.63607 14.4229 7.52165 14.3919 7.45361 14.3301C7.39176 14.2682 7.36084 14.1569 7.36084 13.9961V13.4487C7.36084 13.2879 7.39176 13.1797 7.45361 13.124C7.52165 13.0622 7.63607 13.0312 7.79688 13.0312H8.34424C8.50505 13.0312 8.61637 13.0622 8.67822 13.124C8.74626 13.1797 8.78027 13.2879 8.78027 13.4487V13.9961C8.78027 14.1569 8.74626 14.2682 8.67822 14.3301C8.61637 14.3919 8.50505 14.4229 8.34424 14.4229H7.79688ZM10.8862 14.4229C10.7192 14.4229 10.6048 14.3919 10.543 14.3301C10.4811 14.2682 10.4502 14.1569 10.4502 13.9961V13.4487C10.4502 13.2879 10.4811 13.1797 10.543 13.124C10.6048 13.0622 10.7192 13.0312 10.8862 13.0312H11.4243C11.5913 13.0312 11.7057 13.0622 11.7676 13.124C11.8294 13.1797 11.8604 13.2879 11.8604 13.4487V13.9961C11.8604 14.1569 11.8294 14.2682 11.7676 14.3301C11.7057 14.3919 11.5913 14.4229 11.4243 14.4229H10.8862ZM3.27881 17.8555C2.30778 17.8555 1.57796 17.6143 1.08936 17.1318C0.606934 16.6556 0.365723 15.9382 0.365723 14.9795V3.65186C0.365723 2.6932 0.606934 1.97575 1.08936 1.49951C1.57796 1.01709 2.30778 0.775879 3.27881 0.775879H15.9517C16.9227 0.775879 17.6494 1.01709 18.1318 1.49951C18.6143 1.97575 18.8555 2.6932 18.8555 3.65186V14.9795C18.8555 15.9382 18.6143 16.6556 18.1318 17.1318C17.6494 17.6143 16.9227 17.8555 15.9517 17.8555H3.27881ZM3.13965 16.3618H16.0723C16.4867 16.3618 16.8052 16.2505 17.0278 16.0278C17.2505 15.8114 17.3618 15.4897 17.3618 15.063V6.31445C17.3618 5.8877 17.2505 5.56608 17.0278 5.34961C16.8052 5.12695 16.4867 5.01562 16.0723 5.01562H3.13965C2.73145 5.01562 2.41602 5.12695 2.19336 5.34961C1.9707 5.56608 1.85938 5.8877 1.85938 6.31445V15.063C1.85938 15.4897 1.9707 15.8114 2.19336 16.0278C2.41602 16.2505 2.73145 16.3618 3.13965 16.3618Z" fill="white"/>
</svg>
