<svg width="22" height="21" viewBox="0 0 22 21" fill="none" xmlns="http://www.w3.org/2000/svg">
<path d="M11.1069 17.9741C12.1707 17.9741 13.1572 17.7762 14.0664 17.3804C14.9818 16.9907 15.7796 16.4495 16.46 15.7568C17.1465 15.0579 17.6815 14.2477 18.0649 13.3262C18.4484 12.3984 18.6401 11.4058 18.6401 10.3481C18.6401 9.29053 18.4484 8.30094 18.0649 7.37939C17.6815 6.45166 17.1465 5.64144 16.46 4.94873C15.7796 4.24984 14.9818 3.70557 14.0664 3.31592C13.1572 2.92008 12.1707 2.72217 11.1069 2.72217C10.0431 2.72217 9.05355 2.92008 8.13818 3.31592C7.229 3.70557 6.43115 4.24984 5.74463 4.94873C5.06429 5.64144 4.53239 6.45166 4.14893 7.37939C3.76546 8.30094 3.57373 9.29053 3.57373 10.3481C3.57373 11.4058 3.76546 12.3984 4.14893 13.3262C4.53239 14.2477 5.06429 15.0579 5.74463 15.7568C6.43115 16.4495 7.229 16.9907 8.13818 17.3804C9.05355 17.7762 10.0431 17.9741 11.1069 17.9741ZM11.0884 12.8159C11.0018 12.8159 10.9059 12.8097 10.8008 12.7974C10.7018 12.785 10.5812 12.7603 10.439 12.7231L7.27539 17.9092L6.19922 17.269L9.39062 12.0459C9.13704 11.7738 8.9515 11.5016 8.83398 11.2295C8.71647 10.9574 8.65771 10.6759 8.65771 10.3853C8.65771 10.0822 8.71647 9.7915 8.83398 9.51318C8.95768 9.22868 9.14632 8.95654 9.3999 8.69678L6.30127 3.41797L7.38672 2.80566L10.439 8.02881C10.5874 7.99788 10.7111 7.97624 10.8101 7.96387C10.909 7.9515 11.0018 7.94531 11.0884 7.94531C11.6141 7.94531 12.0811 8.09993 12.4893 8.40918C12.9036 8.71842 13.2191 9.16683 13.4355 9.75439H19.5122L19.5215 10.9604H13.4355C13.2253 11.5604 12.9129 12.0212 12.4985 12.3428C12.0903 12.6582 11.6203 12.8159 11.0884 12.8159ZM9.9751 10.376C9.9751 10.6852 10.0864 10.9512 10.3091 11.1738C10.5379 11.3965 10.8039 11.5078 11.1069 11.5078C11.4162 11.5078 11.6821 11.3965 11.9048 11.1738C12.1336 10.9512 12.248 10.6852 12.248 10.376C12.248 10.0605 12.1336 9.7946 11.9048 9.57812C11.6821 9.36165 11.4162 9.25342 11.1069 9.25342C10.8039 9.25342 10.5379 9.36165 10.3091 9.57812C10.0864 9.7946 9.9751 10.0605 9.9751 10.376ZM11.1069 19.3843C10.9832 19.3843 10.8626 19.3781 10.7451 19.3657C10.6276 19.3595 10.507 19.3503 10.3833 19.3379L9.84521 20.3584C9.79574 20.4635 9.72152 20.5409 9.62256 20.5903C9.5236 20.6398 9.41227 20.6553 9.28857 20.6367C9.17106 20.6182 9.0721 20.5656 8.9917 20.479C8.91748 20.3986 8.87419 20.2965 8.86182 20.1729L8.69482 19.0503C8.46598 18.9884 8.23714 18.9142 8.0083 18.8276C7.78564 18.7472 7.56299 18.6576 7.34033 18.5586L6.50537 19.3101C6.41878 19.3966 6.31982 19.4461 6.2085 19.4585C6.10335 19.4709 5.99202 19.4461 5.87451 19.3843C5.76937 19.3286 5.69515 19.2482 5.65186 19.1431C5.61475 19.0441 5.60856 18.9328 5.6333 18.8091L5.86523 17.6958C5.6735 17.5659 5.48177 17.4237 5.29004 17.269C5.10449 17.1144 4.92513 16.9505 4.75195 16.7773L3.72217 17.2134C3.48096 17.3123 3.27376 17.2567 3.10059 17.0464C3.02018 16.9598 2.9738 16.8639 2.96143 16.7588C2.95524 16.6475 2.98617 16.5392 3.0542 16.4341L3.65723 15.4692C3.52116 15.2775 3.39437 15.0765 3.27686 14.8662C3.15934 14.6559 3.04801 14.4395 2.94287 14.2168L1.81104 14.2725C1.68734 14.2786 1.5791 14.2508 1.48633 14.189C1.39355 14.1271 1.32552 14.0374 1.28223 13.9199C1.2513 13.8024 1.2513 13.6911 1.28223 13.5859C1.31315 13.4808 1.375 13.3911 1.46777 13.3169L2.3584 12.6118C2.29655 12.3892 2.24398 12.1603 2.20068 11.9253C2.15739 11.6841 2.12956 11.4398 2.11719 11.1924L1.03174 10.8491C0.914225 10.8058 0.821452 10.744 0.753418 10.6636C0.691569 10.577 0.660645 10.4688 0.660645 10.3389C0.660645 10.2152 0.691569 10.11 0.753418 10.0234C0.821452 9.93685 0.914225 9.875 1.03174 9.83789L2.11719 9.49463C2.12956 9.24723 2.15739 9.00602 2.20068 8.771C2.24398 8.53597 2.29655 8.30404 2.3584 8.0752L1.46777 7.36084C1.36882 7.29281 1.30387 7.20931 1.27295 7.11035C1.24202 7.00521 1.24512 6.89388 1.28223 6.77637C1.32552 6.65885 1.39355 6.56917 1.48633 6.50732C1.5791 6.44548 1.68734 6.41764 1.81104 6.42383L2.94287 6.47021C3.04801 6.24756 3.15934 6.03418 3.27686 5.83008C3.39437 5.61979 3.52116 5.41569 3.65723 5.21777L3.0542 4.24365C2.98617 4.15088 2.95524 4.05192 2.96143 3.94678C2.9738 3.83545 3.02018 3.73649 3.10059 3.6499C3.27376 3.43962 3.48096 3.38395 3.72217 3.48291L4.75195 3.90039C4.92513 3.73958 5.10449 3.58187 5.29004 3.42725C5.48177 3.26644 5.6735 3.12109 5.86523 2.99121L5.6333 1.88721C5.58382 1.61507 5.66423 1.42025 5.87451 1.30273C5.98584 1.24089 6.09717 1.21615 6.2085 1.22852C6.31982 1.24089 6.41878 1.29346 6.50537 1.38623L7.34033 2.11914C7.56299 2.02018 7.78564 1.9305 8.0083 1.8501C8.23714 1.76969 8.46598 1.69548 8.69482 1.62744L8.86182 0.51416C8.87419 0.396647 8.91748 0.297689 8.9917 0.217285C9.0721 0.130697 9.17106 0.078125 9.28857 0.0595703C9.41227 0.0410156 9.5236 0.0564779 9.62256 0.105957C9.72152 0.155436 9.79574 0.229655 9.84521 0.328613L10.3833 1.34912C10.507 1.33675 10.6276 1.32747 10.7451 1.32129C10.8626 1.3151 10.9832 1.31201 11.1069 1.31201C11.2306 1.31201 11.3481 1.3151 11.4595 1.32129C11.577 1.32747 11.7007 1.33675 11.8306 1.34912L12.3594 0.328613C12.4089 0.229655 12.4831 0.155436 12.582 0.105957C12.681 0.0564779 12.7923 0.0410156 12.916 0.0595703C13.0335 0.078125 13.1294 0.130697 13.2036 0.217285C13.284 0.297689 13.3335 0.396647 13.3521 0.51416L13.5098 1.63672C13.7386 1.70475 13.9674 1.77897 14.1963 1.85938C14.4251 1.93359 14.6478 2.02018 14.8643 2.11914L15.6992 1.38623C15.7858 1.29346 15.8848 1.24089 15.9961 1.22852C16.1074 1.21615 16.2188 1.24089 16.3301 1.30273C16.4352 1.3584 16.5063 1.4388 16.5435 1.54395C16.5868 1.6429 16.596 1.75732 16.5713 1.88721L16.3394 2.99121C16.5311 3.12109 16.7197 3.26644 16.9053 3.42725C17.097 3.58187 17.2795 3.73958 17.4526 3.90039L18.4824 3.48291C18.7236 3.38395 18.9339 3.43962 19.1133 3.6499C19.1875 3.73649 19.2277 3.83545 19.2339 3.94678C19.2463 4.05192 19.2184 4.15397 19.1504 4.25293L18.5474 5.21777C18.6896 5.41569 18.8164 5.61979 18.9277 5.83008C19.0452 6.03418 19.1566 6.24756 19.2617 6.47021L20.4028 6.42383C20.5203 6.41764 20.6255 6.44548 20.7183 6.50732C20.8172 6.56917 20.8853 6.65885 20.9224 6.77637C20.9595 6.89388 20.9595 7.00521 20.9224 7.11035C20.8914 7.20931 20.8296 7.29281 20.7368 7.36084L19.8462 8.0752C19.908 8.30404 19.9606 8.53597 20.0039 8.771C20.0534 9.00602 20.0874 9.24723 20.106 9.49463L21.1729 9.83789C21.2904 9.875 21.3831 9.93685 21.4512 10.0234C21.5192 10.11 21.5532 10.2152 21.5532 10.3389C21.5532 10.4626 21.5192 10.5677 21.4512 10.6543C21.3831 10.7409 21.2904 10.8058 21.1729 10.8491L20.106 11.1831C20.0874 11.4367 20.0534 11.6841 20.0039 11.9253C19.9606 12.1603 19.908 12.3892 19.8462 12.6118L20.7368 13.3169C20.8296 13.3911 20.8914 13.4839 20.9224 13.5952C20.9595 13.7004 20.9595 13.8086 20.9224 13.9199C20.8853 14.0374 20.8172 14.1271 20.7183 14.189C20.6255 14.2508 20.5203 14.2786 20.4028 14.2725L19.2617 14.2168C19.1566 14.4395 19.0452 14.6559 18.9277 14.8662C18.8164 15.0765 18.6896 15.2775 18.5474 15.4692L19.1504 16.4341C19.2184 16.5392 19.2463 16.6475 19.2339 16.7588C19.2277 16.8639 19.1875 16.9598 19.1133 17.0464C18.9339 17.2567 18.7236 17.3123 18.4824 17.2134L17.4526 16.7773C17.2795 16.9505 17.097 17.1144 16.9053 17.269C16.7197 17.4237 16.5311 17.5659 16.3394 17.6958L16.5713 18.8091C16.596 18.9328 16.5868 19.0441 16.5435 19.1431C16.5063 19.2482 16.4352 19.3286 16.3301 19.3843C16.2188 19.4461 16.1074 19.4709 15.9961 19.4585C15.8848 19.4461 15.7858 19.3966 15.6992 19.3101L14.8643 18.5586C14.6478 18.6576 14.4251 18.7472 14.1963 18.8276C13.9674 18.9142 13.7386 18.9884 13.5098 19.0503L13.3521 20.1729C13.3335 20.2965 13.284 20.3986 13.2036 20.479C13.1294 20.5656 13.0366 20.6182 12.9253 20.6367C12.7954 20.6553 12.681 20.6398 12.582 20.5903C12.4831 20.5409 12.4089 20.4635 12.3594 20.3584L11.8306 19.3379C11.7007 19.3503 11.577 19.3595 11.4595 19.3657C11.3481 19.3781 11.2306 19.3843 11.1069 19.3843Z" fill="white"/>
</svg>
